<svg width="250" height="37" viewBox="0 0 250 37" fill="none" xmlns="http://www.w3.org/2000/svg">
<path d="M27.3786 6.6718L20.2518 10.7768L9.86651 16.775C9.52063 16.9752 9.13228 17.1542 9.24454 17.6548C9.36893 18.2343 9.61772 18.7683 10.2063 18.9837C10.4457 19.0094 10.6863 18.9468 10.8829 18.8077C13.4709 17.3302 16.0801 15.8769 18.6256 14.3265C20.6462 13.1129 22.503 13.4861 23.8896 14.5693C24.676 15.197 25.2598 16.0427 25.568 17.0006C25.8761 17.9585 25.8949 18.986 25.622 19.9546C25.4613 20.4734 25.1992 20.9552 24.8507 21.3719C24.5023 21.7886 24.0745 22.1318 23.5922 22.3818C19.8989 24.5055 16.2095 26.6293 12.5243 28.7531L11.2257 29.5177C11.3532 29.6087 11.4411 29.6785 11.5291 29.7361C12.8186 30.4825 14.105 31.2349 15.4066 31.96C15.4998 32.0078 15.6023 32.035 15.707 32.0397C15.8117 32.0444 15.9162 32.0265 16.0133 31.9873C19.8968 29.7624 23.7712 27.5254 27.6365 25.2762C27.7221 25.2151 27.7934 25.1364 27.8458 25.0453C27.8981 24.9542 27.9303 24.8529 27.9399 24.7483C27.9399 20.3035 27.9399 15.8587 27.9581 11.4139C27.9694 11.2943 27.943 11.1741 27.8826 11.0702C27.8222 10.9663 27.7309 10.8839 27.6214 10.8344C26.7931 10.3763 25.98 9.89389 25.088 9.37508C26.2621 8.6985 27.3604 8.05833 28.4678 7.43637C28.5265 7.41857 28.5884 7.4137 28.6491 7.42207C28.7099 7.43045 28.7681 7.45189 28.8198 7.48491C29.6208 7.93394 30.4187 8.3951 31.2015 8.86537C31.2729 8.9212 31.3319 8.99132 31.3748 9.07125C31.4176 9.15117 31.4433 9.23915 31.4502 9.32957C31.4624 15.1528 31.4624 20.975 31.4502 26.7962C31.4398 26.9002 31.4073 27.0008 31.355 27.0913C31.3027 27.1818 31.2317 27.2601 31.1468 27.3211C26.1307 30.2337 21.1084 33.1342 16.0801 36.0225C15.9864 36.0695 15.8837 36.0958 15.779 36.0994C15.6743 36.1031 15.57 36.0841 15.4733 36.0438C11.7273 33.9018 7.99049 31.7497 4.26274 29.5875C4.22269 29.5572 4.18515 29.5237 4.15049 29.4873C4.30825 29.3872 4.45388 29.2932 4.59648 29.2082L21.5837 19.4145C21.9175 19.2234 22.3453 19.0838 22.2816 18.5741C22.2662 18.2939 22.1799 18.0221 22.0308 17.7844C21.8817 17.5466 21.6746 17.3507 21.429 17.2149C21.2918 17.1831 21.1496 17.1794 21.011 17.2039C20.8723 17.2284 20.74 17.2807 20.622 17.3575C18.0158 18.8259 15.3944 20.2883 12.8307 21.8417C10.8647 23.0341 8.97451 22.6518 7.67294 21.599C6.02245 20.2792 5.2943 18.0098 5.90413 16.1378C6.22856 15.1446 6.92427 14.3152 7.84587 13.8229C11.8265 11.5211 15.8091 9.21832 19.7937 6.91452L20.2579 6.63236C20.1578 6.55651 20.0941 6.4928 20.0212 6.45032C18.7015 5.68879 17.3877 4.91816 16.0558 4.17787C15.9607 4.13404 15.8572 4.11135 15.7524 4.11135C15.6477 4.11135 15.5442 4.13404 15.449 4.17787C11.5817 6.40279 7.72249 8.62771 3.87136 10.8526C3.78599 10.9124 3.71464 10.9901 3.66225 11.0802C3.60986 11.1703 3.57769 11.2707 3.56796 11.3745C3.54976 15.8344 3.56796 20.2944 3.54672 24.7574C3.53815 24.8773 3.56753 24.997 3.63069 25.0993C3.69384 25.2017 3.78759 25.2816 3.89867 25.3278C4.71177 25.7798 5.51578 26.2562 6.4017 26.7659C5.73119 27.1572 5.11833 27.5213 4.49939 27.8733C3.96238 28.1767 3.41626 28.6924 2.87015 28.6955C2.32403 28.6985 1.84163 28.0887 1.28034 27.8884C0.206311 27.4879 0 26.7719 0 25.6736C0.0637136 20.2792 0.0333738 14.8818 0.0212379 9.48734C0.00519618 9.33768 0.0367235 9.18678 0.111341 9.05606C0.185958 8.92534 0.29987 8.82146 0.436893 8.75918C5.42476 5.89308 10.4055 3.01788 15.3792 0.133575C15.4707 0.0564522 15.5843 0.0102272 15.7036 0.00150856C15.8229 -0.0072101 15.942 0.0220239 16.0437 0.0850314C19.7269 2.22702 23.4142 4.35991 27.1056 6.4837C27.1754 6.52617 27.2391 6.57168 27.3786 6.6718Z" fill="url(#paint0_linear)"/>
<path d="M43.8167 9.70581H58.2797C58.6851 9.70884 59.0775 9.84892 59.3932 10.1033C59.6113 10.2844 59.7856 10.5125 59.9033 10.7704C60.021 11.0284 60.0789 11.3095 60.0728 11.5929V13.8138H60.0485C58.9866 13.83 56.7395 13.8371 53.307 13.8351C50.6027 13.8492 48.5073 13.8573 47.0206 13.8593C45.4652 13.8755 44.4063 13.8826 43.844 13.8806C43.7324 13.8818 43.6249 13.9226 43.5406 13.9959C43.5001 14.0404 43.469 14.0926 43.4492 14.1494C43.4294 14.2063 43.4213 14.2665 43.4254 14.3266V15.1913C43.419 15.2805 43.4411 15.3694 43.4885 15.4452C43.536 15.521 43.6063 15.5797 43.6893 15.613L43.7439 15.6281C43.763 15.6315 43.7825 15.6315 43.8016 15.6281L49.7027 15.6069H50.361C51.2551 15.5927 52.9561 15.5847 55.4642 15.5826H55.5552C55.9936 15.5931 56.4307 15.6357 56.8629 15.7101C57.1967 15.7616 57.5248 15.8449 57.8428 15.9588C58.6014 16.2242 59.232 16.7659 59.6086 17.4758C59.9399 18.1755 60.0991 18.9443 60.0728 19.7179V21.3472C60.0728 22.9653 59.5985 24.1 58.6499 24.7513C57.8833 25.2974 56.7405 25.5705 55.2215 25.5705H41.1286C40.8626 25.5657 40.6008 25.5026 40.3618 25.3857C40.1228 25.2688 39.9123 25.101 39.7451 24.8939C39.4659 24.5672 39.3159 24.1495 39.3234 23.7198V21.4655H55.3701C55.4516 21.4705 55.5322 21.4473 55.5985 21.3997C55.6648 21.3522 55.7128 21.2833 55.7342 21.2046C55.7485 21.1837 55.7578 21.1598 55.7615 21.1348C55.7615 21.1136 55.7615 21.0984 55.7615 21.0893V19.8939C55.7616 19.8161 55.7362 19.7403 55.689 19.6784C55.6419 19.6164 55.5757 19.5717 55.5006 19.5511C55.4565 19.5366 55.4104 19.5295 55.3641 19.5298H43.8349C42.0146 19.5298 40.7625 19.0778 40.0789 18.1737C39.9558 18.0333 39.8536 17.8759 39.7755 17.7064C39.6877 17.5353 39.6156 17.3566 39.5601 17.1724C39.4896 16.9338 39.4359 16.6904 39.3993 16.4443C39.3465 15.9871 39.3242 15.527 39.3325 15.0669V14.9758C39.3325 13.5114 39.4569 12.5001 39.7057 11.9419C39.8466 11.553 40.0666 11.1976 40.3519 10.8982C40.4788 10.7422 40.6293 10.6071 40.7979 10.4977C41.2476 10.1896 41.7556 9.97694 42.2907 9.87268C42.7907 9.75546 43.3032 9.69942 43.8167 9.70581Z" fill="black"/>
<path d="M64.4751 9.70581H67.1147V14.2355C67.1148 14.431 67.1544 14.6245 67.231 14.8044C67.3076 14.9842 67.4198 15.1468 67.5607 15.2823C67.7102 15.4297 67.8882 15.545 68.0838 15.6212C68.2795 15.6974 68.4886 15.7328 68.6984 15.7252H79.642L79.6663 15.704V9.70581H82.318C82.7134 9.72393 83.086 9.89589 83.3564 10.185C83.6268 10.4741 83.7735 10.8574 83.7652 11.2531V24.0505C83.7703 24.3066 83.709 24.5598 83.5872 24.7852C83.4655 25.0106 83.2874 25.2007 83.0704 25.3369C82.8307 25.4854 82.5544 25.5642 82.2725 25.5644H79.6663V21.4868C79.6807 21.2375 79.6371 20.9882 79.5388 20.7586C79.4839 20.6267 79.4158 20.5006 79.3356 20.3824C79.1881 20.2043 79.0025 20.0616 78.7924 19.965C78.5823 19.8683 78.3532 19.8202 78.122 19.8241H67.1147V25.5644H64.4964C64.2902 25.5646 64.0862 25.5212 63.898 25.437C63.7098 25.3528 63.5415 25.2298 63.4041 25.076C63.1329 24.7771 62.9892 24.384 63.0036 23.9807V11.2956C62.9929 11.0051 63.0643 10.7174 63.2098 10.4657C63.3552 10.214 63.5688 10.0084 63.8258 9.87268C64.026 9.76636 64.2485 9.70916 64.4751 9.70581Z" fill="black"/>
<path d="M92.7488 9.70583H104.945C105.147 9.70179 105.348 9.73805 105.535 9.81248C105.723 9.88691 105.894 9.99801 106.038 10.1393C106.182 10.2805 106.296 10.4491 106.374 10.6352C106.453 10.8213 106.493 11.021 106.493 11.2228V13.8199H92.8186C92.399 13.8127 91.9838 13.9058 91.6075 14.0916C91.2312 14.2774 90.9047 14.5504 90.6553 14.8879C90.3022 15.338 90.1099 15.8934 90.1092 16.4655V18.8078C90.1059 19.4957 90.3715 20.1577 90.8495 20.6524C91.021 20.8226 91.2126 20.9713 91.4199 21.0954C91.5594 21.1883 91.7131 21.258 91.875 21.3017C92.1075 21.3956 92.3531 21.4529 92.6031 21.4716H106.462V24.1021C106.457 24.3207 106.404 24.5356 106.308 24.732C106.211 24.9284 106.074 25.1016 105.904 25.2398C105.631 25.4548 105.293 25.5714 104.945 25.5705H92.7275C91.3169 25.5633 89.9451 25.1074 88.8107 24.2689C88.5055 24.0415 88.2156 23.7942 87.943 23.5286C87.6486 23.2293 87.3854 22.901 87.1572 22.5487C86.9628 22.2596 86.7924 21.9552 86.6474 21.6385C86.2099 20.7135 85.9909 19.7004 86.0073 18.6773V16.593C85.9869 15.4707 86.2499 14.3615 86.7718 13.3678C86.9421 13.0456 87.1326 12.7345 87.3422 12.4364C87.3999 12.3697 87.4666 12.2938 87.5334 12.2089C87.6487 12.0723 87.7761 11.9267 87.9217 11.7659C88.2182 11.4586 88.5467 11.184 88.9017 10.9467C90.0124 10.1206 91.3647 9.68442 92.7488 9.70583Z" fill="black"/>
<path d="M110.619 9.70581H113.258V14.2355C113.259 14.431 113.298 14.6245 113.375 14.8044C113.451 14.9842 113.564 15.1468 113.704 15.2823C113.854 15.4297 114.032 15.545 114.228 15.6212C114.423 15.6974 114.632 15.7328 114.842 15.7252H125.786L125.81 15.704V9.70581H128.462C128.857 9.72393 129.23 9.89589 129.5 10.185C129.771 10.4741 129.917 10.8574 129.909 11.2531V24.0505C129.914 24.3066 129.853 24.5598 129.731 24.7852C129.609 25.0106 129.431 25.2007 129.214 25.3369C128.975 25.4854 128.698 25.5642 128.416 25.5644H125.81V21.4868C125.825 21.2375 125.781 20.9882 125.683 20.7586C125.628 20.6267 125.56 20.5006 125.479 20.3824C125.332 20.2043 125.146 20.0616 124.936 19.965C124.726 19.8683 124.497 19.8202 124.266 19.8241H113.258V25.5644H110.64C110.434 25.5646 110.23 25.5212 110.042 25.437C109.854 25.3528 109.685 25.2298 109.548 25.076C109.277 24.7771 109.133 24.384 109.147 23.9807V11.2956C109.137 11.0051 109.208 10.7174 109.354 10.4657C109.499 10.214 109.713 10.0084 109.97 9.87268C110.17 9.76636 110.392 9.70916 110.619 9.70581Z" fill="black"/>
<path d="M133.474 9.70568H136.811C137.088 9.69792 137.361 9.76589 137.602 9.90225C137.842 10.0386 138.041 10.2382 138.177 10.4793C138.313 10.7304 138.38 11.0131 138.371 11.2985V25.5582H134.942C134.541 25.5455 134.161 25.3743 133.886 25.082C133.611 24.7896 133.462 24.4001 133.474 23.9988V9.70568Z" fill="black"/>
<path d="M142.391 9.70566H160.03C160.432 9.69053 160.824 9.83317 161.123 10.1031C161.245 10.2096 161.348 10.337 161.426 10.4793C161.545 10.6839 161.615 10.9135 161.629 11.1498V13.8379H153.134V25.5643H150.485C150.093 25.5548 149.719 25.3964 149.439 25.1213C149.43 25.1111 149.423 25.0999 149.417 25.0879C149.385 25.0553 149.355 25.0208 149.326 24.9848C149.119 24.7342 149.003 24.4209 148.996 24.0958V13.8349H140.777V11.7415C140.755 11.4667 140.77 11.1903 140.819 10.9193C140.872 10.6498 140.994 10.3988 141.174 10.1911C141.295 10.0755 141.428 9.97372 141.572 9.8877C141.821 9.74779 142.106 9.68447 142.391 9.70566Z" fill="black"/>
<path d="M169.618 9.70581H177.791C179.172 9.70804 180.517 10.1419 181.638 10.9467C181.904 11.1253 182.151 11.3284 182.379 11.5535L182.527 11.6779C182.9 12.1027 183.167 12.4303 183.334 12.6579C184.128 13.8015 184.552 15.1613 184.548 16.5535V18.7501C184.562 20.3895 183.984 21.9787 182.919 23.2252C182.663 23.517 182.381 23.7841 182.075 24.0232C181.715 24.3279 181.323 24.5915 180.904 24.809C179.942 25.3175 178.87 25.5831 177.782 25.5826H169.642C168.18 25.5835 166.757 25.1085 165.589 24.2295C165.286 23.9825 164.997 23.7202 164.721 23.4437C164.431 23.1415 164.175 22.8077 163.959 22.4485C163.245 21.359 162.869 20.0831 162.876 18.7804V16.4898C162.869 14.9442 163.396 13.4436 164.369 12.2422C164.515 12.0753 164.748 11.8175 165.076 11.4686C165.337 11.2362 165.618 11.0271 165.916 10.8436C167.009 10.1028 168.298 9.70655 169.618 9.70581ZM166.987 16.5929V18.6652C166.969 19.1558 167.092 19.6415 167.342 20.0638C167.442 20.2812 167.581 20.4786 167.752 20.6463C168.004 20.9105 168.308 21.1197 168.645 21.2607C168.981 21.4017 169.344 21.4714 169.709 21.4655H177.694C178.115 21.4733 178.532 21.3788 178.909 21.1902C179.286 21.0015 179.611 20.7243 179.857 20.3824C180.009 20.1909 180.135 19.9808 180.234 19.7574C180.366 19.3932 180.428 19.007 180.416 18.6196V16.684C180.434 16.3079 180.379 15.9319 180.255 15.5766C180.031 14.9925 179.613 14.503 179.072 14.19C178.663 13.9416 178.194 13.8114 177.715 13.8138H169.688C169.26 13.8099 168.838 13.9091 168.458 14.1029C168.077 14.2967 167.748 14.5795 167.5 14.9273C167.365 15.1147 167.253 15.3186 167.169 15.5341C167.038 15.8712 166.976 16.2313 166.987 16.5929Z" fill="black"/>
<path d="M203.134 9.70581H207.461C201.999 19.3336 199.252 24.188 199.217 24.2689L198.726 25.1336C198.629 25.2316 198.507 25.3018 198.374 25.3369C197.712 25.5061 197.03 25.5826 196.347 25.5644H196.044C195.315 25.5687 194.587 25.5006 193.871 25.3611C193.684 25.3192 193.501 25.2583 193.325 25.1791C193.255 25.1297 193.2 25.0627 193.164 24.9849L184.56 9.7938H188.874C189.135 9.79884 189.388 9.87776 189.606 10.0213C189.888 10.2178 190.109 10.4903 190.243 10.8071C193.948 17.0632 195.866 20.3126 195.995 20.5553C199.921 13.8644 201.922 10.4592 201.996 10.3399C202.072 10.2287 202.161 10.1269 202.26 10.0365C202.504 9.8274 202.813 9.71037 203.134 9.70581Z" fill="black"/>
<path d="M214.235 9.70581H222.391C223.771 9.70743 225.117 10.1414 226.238 10.9467C226.503 11.1253 226.751 11.3284 226.978 11.5535L227.127 11.6779C227.5 12.1027 227.767 12.4303 227.937 12.6579C228.723 13.8041 229.14 15.1634 229.132 16.5535V18.7501C229.146 20.3895 228.568 21.9787 227.503 23.2252C227.247 23.517 226.965 23.7841 226.66 24.0232C226.3 24.3279 225.907 24.5915 225.488 24.809C224.532 25.3073 223.469 25.5666 222.391 25.5644H214.26C212.798 25.5649 211.375 25.0899 210.206 24.2113C209.906 23.9641 209.618 23.7018 209.345 23.4255C209.053 23.1293 208.796 22.8016 208.577 22.4485C207.862 21.3582 207.486 20.0811 207.494 18.7774V16.4898C207.487 14.9442 208.014 13.4436 208.987 12.2422C209.132 12.0753 209.366 11.8175 209.694 11.4686C209.955 11.2362 210.236 11.0271 210.534 10.8436C211.626 10.1028 212.916 9.70655 214.235 9.70581ZM211.605 16.5929V18.6652C211.586 19.1558 211.71 19.6415 211.96 20.0638C212.063 20.282 212.205 20.4794 212.379 20.6463C212.631 20.9102 212.935 21.1192 213.272 21.2602C213.608 21.4011 213.971 21.471 214.336 21.4655H222.321C222.742 21.4733 223.159 21.3788 223.536 21.1902C223.913 21.0015 224.238 20.7243 224.484 20.3824C224.636 20.1909 224.762 19.9808 224.86 19.7574C224.993 19.3932 225.055 19.007 225.042 18.6196V16.684C225.061 16.3079 225.006 15.9319 224.882 15.5766C224.658 14.9925 224.24 14.503 223.698 14.19C223.29 13.9416 222.82 13.8114 222.342 13.8138H214.305C213.878 13.8099 213.456 13.9091 213.075 14.1029C212.694 14.2967 212.366 14.5795 212.118 14.9273C211.982 15.1147 211.871 15.3186 211.787 15.5341C211.656 15.8712 211.594 16.2313 211.605 16.5929Z" fill="black"/>
<path d="M248.435 9.70567C248.666 9.69854 248.896 9.74525 249.107 9.84212C249.318 9.93898 249.503 10.0834 249.648 10.2639C249.802 10.4467 249.907 10.6662 249.951 10.9011C249.983 11.026 250 11.1544 250 11.2833V13.6195H235.555V15.9071H245.655V19.3477H235.576V21.7748H249.982V24.0625C249.976 24.3179 249.906 24.5677 249.779 24.7889C249.651 25.0101 249.469 25.1954 249.251 25.3276C248.997 25.478 248.705 25.5527 248.41 25.543H232.891C232.743 25.5348 232.597 25.5041 232.458 25.452C232.078 25.3189 231.767 25.0406 231.593 24.6784C231.501 24.4626 231.455 24.2302 231.456 23.9957V16.0103C231.456 15.6219 231.456 14.3618 231.456 12.2299V11.1832C231.464 10.9045 231.547 10.633 231.696 10.3974C231.849 10.1693 232.058 9.98434 232.303 9.8604C232.421 9.79925 232.548 9.75726 232.679 9.73601C232.745 9.71665 232.813 9.70544 232.882 9.70264L248.435 9.70567Z" fill="black"/>
<defs>
<linearGradient id="paint0_linear" x1="1.24697" y1="13.7986" x2="32.8914" y2="23.0887" gradientUnits="userSpaceOnUse">
<stop stop-color="#4ACAB8"/>
<stop offset="0.56" stop-color="#33A595"/>
</linearGradient>
</defs>
</svg>
